<?xml version="1.0" encoding="utf-8"?>
<!-- Generator: Adobe Illustrator 25.0.0, SVG Export Plug-In . SVG Version: 6.00 Build 0)  -->
<svg version="1.1" id="Capa_1" xmlns="http://www.w3.org/2000/svg" xmlns:xlink="http://www.w3.org/1999/xlink" x="0px" y="0px"
	 viewBox="0 0 512 512" style="enable-background:new 0 0 512 512;" xml:space="preserve">
<style type="text/css">
	.st0{fill:#02372F;}
</style>
<g>
	<g>
		<path class="st0" d="M318.34,174.17c0-22.99-24.66-40.87-71.39-40.87c-33.1,0-61,9.37-84.37,24.27l-31.8-19.16
			c29.2-20.01,69.44-34.49,119.41-34.49c72.04,0,120.71,25.97,120.71,66.42c0,57.9-117.46,69.82-106.43,124.74h-47.38
			C201.53,234.63,318.34,217.6,318.34,174.17z M197.64,366.18c0-20.44,22.06-32.78,48.02-32.78s48.02,12.35,48.02,32.78
			c0,20.44-22.06,33.21-48.02,33.21S197.64,386.62,197.64,366.18z"/>
	</g>
</g>
</svg>
